<svg width="8" height="5" viewBox="0 0 8 5" fill="none" xmlns="http://www.w3.org/2000/svg">
<path d="M4.00011 4.98332C3.91123 4.98332 3.82789 4.96943 3.75011 4.94165C3.67234 4.91387 3.60011 4.86665 3.53345 4.79998L0.466781 1.73332C0.344558 1.61109 0.283447 1.45554 0.283447 1.26665C0.283447 1.07776 0.344558 0.922205 0.466781 0.799983C0.589003 0.677761 0.744558 0.61665 0.933447 0.61665C1.12234 0.61665 1.27789 0.677761 1.40011 0.799983L4.00011 3.39998L6.60011 0.799983C6.72234 0.677761 6.87789 0.61665 7.06678 0.61665C7.25567 0.61665 7.41122 0.677761 7.53345 0.799983C7.65567 0.922205 7.71678 1.07776 7.71678 1.26665C7.71678 1.45554 7.65567 1.61109 7.53345 1.73332L4.46678 4.79998C4.40011 4.86665 4.32789 4.91387 4.25011 4.94165C4.17234 4.96943 4.089 4.98332 4.00011 4.98332Z" fill="#5E555C"/>
</svg>
